<!DOCTYPE svg PUBLIC "-//W3C//DTD SVG 20010904//EN" "http://www.w3.org/TR/2001/REC-SVG-20010904/DTD/svg10.dtd">
<svg version="1.0" xmlns="http://www.w3.org/2000/svg" width="137px" height="63px" viewBox="0 0 1370 630" preserveAspectRatio="xMidYMid meet">
<g id="layer101" fill="#b3bdbd" stroke="none">
 <path d="M0 315 l0 -315 685 0 685 0 0 315 0 315 -685 0 -685 0 0 -315z"/>
 </g>
<g id="layer102" fill="#bbc4c4" stroke="none">
 <path d="M0 315 l0 -315 685 0 685 0 0 315 0 315 -685 0 -685 0 0 -315z m398 189 c119 -136 138 -176 113 -238 -8 -20 -183 -235 -191 -235 -3 0 -47 50 -99 111 -86 101 -95 115 -99 159 -3 36 0 56 14 76 28 44 177 214 184 211 3 -2 38 -40 78 -84z m301 -174 c26 0 53 6 60 13 10 10 11 9 6 -5 -6 -14 -19 -18 -61 -18 l-54 0 0 -45 0 -45 58 0 c32 0 63 5 70 12 16 16 15 50 0 68 -11 12 -10 12 5 1 22 -17 22 -49 0 -73 -12 -14 -31 -18 -80 -18 l-63 0 2 108 c1 59 3 83 5 55 l4 -53 48 0z m98 83 c-4 -3 -7 0 -7 7 0 7 3 10 7 7 3 -4 3 -10 0 -14z m86 -81 l22 -23 28 33 29 33 -21 -32 c-12 -17 -21 -35 -21 -39 0 -5 17 -26 38 -48 20 -23 5 -12 -34 24 -69 62 -72 67 -71 110 l0 45 4 -40 c3 -23 14 -50 26 -63z m287 88 c11 -6 25 -20 31 -33 10 -18 7 -17 -14 6 -30 31 -78 36 -117 11 l-25 -16 24 21 c25 23 71 27 101 11z m-180 -14 c0 -2 -8 -10 -17 -17 -16 -13 -17 -12 -4 4 13 16 21 21 21 13z m-209 -33 c-12 -20 -14 -14 -5 12 4 9 9 14 11 11 3 -2 0 -13 -6 -23z m279 -118 c8 -9 23 -21 35 -25 15 -7 16 -9 3 -9 -9 -1 -28 13 -42 30 -20 23 -26 41 -25 72 l2 42 6 -46 c4 -26 13 -54 21 -64z m160 66 c0 -28 -8 -49 -26 -70 -14 -17 -30 -31 -34 -31 -5 0 5 13 21 29 23 23 29 39 29 70 0 23 2 41 5 41 3 0 5 -18 5 -39z m-363 -73 c-2 -18 -4 -6 -4 27 0 33 2 48 4 33 2 -15 2 -42 0 -60z"/>
 <path d="M283 359 c-30 -38 -32 -43 -19 -67 8 -15 24 -36 35 -46 21 -20 22 -19 51 15 38 44 37 62 -2 104 l-33 34 -32 -40z"/>
 </g>
<g id="layer103" fill="#d1d7d7" stroke="none">
 <path d="M0 315 l0 -315 685 0 685 0 0 315 0 315 -685 0 -685 0 0 -315z m402 188 c46 -54 92 -109 101 -123 22 -32 22 -98 -2 -135 -25 -41 -171 -210 -181 -210 -18 0 -191 212 -201 245 -16 52 4 91 108 215 48 57 89 105 89 105 1 0 40 -44 86 -97z m282 -171 c54 -6 73 5 92 55 10 25 20 41 22 35 2 -6 -6 -29 -16 -51 -19 -39 -19 -40 -1 -57 11 -9 19 -27 19 -40 0 -40 -25 -54 -96 -54 l-64 0 2 108 c1 78 3 93 7 57 6 -46 8 -50 35 -53z m193 6 c25 -27 35 -22 77 38 21 30 40 53 43 50 3 -3 -13 -30 -36 -60 -22 -30 -41 -59 -41 -63 0 -4 17 -25 37 -48 21 -22 11 -14 -22 18 -33 31 -64 57 -67 57 -4 0 -9 -26 -11 -57 -2 -32 -3 -8 -3 52 -1 61 1 92 3 70 3 -22 12 -48 20 -57z m314 63 c52 -52 33 -157 -33 -180 -71 -25 -128 24 -128 109 0 56 42 100 95 100 27 0 44 -8 66 -29z"/>
 <path d="M286 359 c-33 -39 -32 -56 4 -98 l29 -34 25 29 c39 44 40 60 10 99 -14 19 -30 35 -34 35 -5 0 -20 -14 -34 -31z"/>
 <path d="M650 275 l0 -46 61 3 c72 3 91 20 71 62 -11 24 -17 26 -72 26 l-60 0 0 -45z"/>
 <path d="M1070 400 c-39 -39 -38 -126 3 -155 30 -21 90 -19 110 3 21 23 31 73 23 106 -15 61 -94 88 -136 46z"/>
 </g>
<g id="layer104" fill="#dee2e2" stroke="none">
 <path d="M0 315 l0 -315 685 0 685 0 0 315 0 315 -685 0 -685 0 0 -315z m412 180 c100 -118 110 -135 110 -187 -1 -47 -9 -60 -101 -166 -38 -45 -77 -92 -85 -104 l-15 -22 -21 27 c-12 15 -57 68 -100 118 -117 135 -117 164 -1 303 42 50 85 103 96 118 11 14 23 23 26 20 3 -4 44 -52 91 -107z m775 -88 c57 -51 48 -146 -18 -181 -42 -23 -79 -17 -115 19 -19 19 -24 35 -24 74 0 100 89 150 157 88z m-488 -67 c52 0 63 8 78 54 5 17 15 32 21 34 7 2 4 -14 -8 -44 -18 -42 -19 -49 -5 -64 18 -20 20 -71 3 -88 -7 -7 -40 -12 -80 -12 l-68 0 2 108 c1 59 3 86 5 60 l4 -48 48 0z m169 49 c-3 -21 2 -35 18 -50 l22 -21 41 56 c23 31 47 56 53 56 5 0 -1 -15 -14 -32 -13 -18 -35 -47 -47 -64 l-23 -31 43 -41 c24 -22 41 -43 38 -46 -3 -3 -32 21 -65 54 -32 33 -62 60 -65 60 -3 0 -4 -25 -1 -55 3 -37 1 -55 -7 -55 -7 0 -11 34 -11 106 0 74 3 103 11 98 6 -3 9 -19 7 -35z"/>
 <path d="M285 355 c-30 -39 -28 -59 11 -96 l26 -24 29 33 c16 18 29 38 29 45 -1 12 -55 77 -64 77 -3 0 -17 -16 -31 -35z"/>
 <path d="M1077 400 c-32 -25 -42 -69 -27 -115 13 -39 35 -55 75 -55 14 0 35 4 45 10 24 13 43 72 35 110 -8 35 -48 70 -80 70 -12 0 -34 -9 -48 -20z"/>
 <path d="M654 306 c-3 -8 -4 -27 -2 -43 3 -26 6 -28 54 -31 72 -4 107 33 68 72 -20 21 -112 22 -120 2z"/>
 </g>
<g id="layer105" fill="#feffff" stroke="none">
 <path d="M0 315 l0 -315 685 0 685 0 0 315 0 315 -685 0 -685 0 0 -315z m330 287 c0 -5 41 -56 90 -113 97 -111 119 -157 104 -210 -9 -30 -193 -259 -205 -256 -10 3 -185 210 -197 234 -13 24 -15 78 -3 107 9 23 193 244 204 245 4 1 7 -3 7 -7z m840 -177 c100 -52 63 -215 -48 -215 -39 0 -87 41 -98 85 -11 43 13 103 49 125 39 24 59 25 97 5z m-510 -41 l0 -45 48 3 c46 3 47 4 62 46 8 23 20 42 27 42 17 0 17 0 -6 -52 -18 -43 -18 -44 0 -67 25 -31 24 -47 -6 -77 -22 -22 -32 -25 -88 -22 l-62 3 -3 108 c-2 91 0 107 13 107 11 0 15 -11 15 -46z m210 8 c0 -26 7 -45 19 -56 18 -17 20 -15 57 38 22 31 45 56 52 56 15 0 12 -6 -39 -76 l-37 -51 41 -41 c22 -23 38 -45 34 -49 -4 -4 -34 20 -67 52 l-60 59 0 -58 c0 -42 -3 -57 -12 -54 -9 3 -14 37 -16 111 -2 91 0 107 13 107 11 0 15 -11 15 -38z"/>
 <path d="M293 360 c-35 -43 -35 -52 -3 -90 l29 -35 25 30 c33 39 32 58 -1 94 l-28 30 -22 -29z"/>
 <path d="M1066 388 c-9 -13 -16 -43 -16 -69 0 -39 5 -51 26 -68 15 -12 37 -21 49 -21 12 0 34 9 49 21 21 17 26 29 26 68 0 67 -20 91 -75 91 -34 0 -47 -5 -59 -22z"/>
 <path d="M660 277 l0 -38 58 3 c51 3 57 5 60 27 5 33 -8 42 -67 44 l-51 2 0 -38z"/>
 </g>

</svg>