<?xml version="1.0" encoding="UTF-8" standalone="no"?>
<!-- Created with Inkscape (http://www.inkscape.org/) -->

<svg
   xmlns:dc="http://purl.org/dc/elements/1.1/"
   xmlns:cc="http://creativecommons.org/ns#"
   xmlns:rdf="http://www.w3.org/1999/02/22-rdf-syntax-ns#"
   xmlns:svg="http://www.w3.org/2000/svg"
   xmlns="http://www.w3.org/2000/svg"
   xmlns:sodipodi="http://sodipodi.sourceforge.net/DTD/sodipodi-0.dtd"
   xmlns:inkscape="http://www.inkscape.org/namespaces/inkscape"
   width="135"
   height="56"
   viewBox="0 0 35.718749 14.816667"
   version="1.1"
   id="svg8"
   inkscape:version="0.92.1 r15371"
   sodipodi:docname="3.svg">
  <defs
     id="defs2" />
  <sodipodi:namedview
     id="base"
     pagecolor="#ffffff"
     bordercolor="#666666"
     borderopacity="1.0"
     inkscape:pageopacity="0.0"
     inkscape:pageshadow="2"
     inkscape:zoom="7.9195959"
     inkscape:cx="79.47451"
     inkscape:cy="16.183557"
     inkscape:document-units="px"
     inkscape:current-layer="g4537"
     showgrid="false"
     inkscape:window-width="1920"
     inkscape:window-height="1017"
     inkscape:window-x="-8"
     inkscape:window-y="-8"
     inkscape:window-maximized="1"
     units="px"
     fit-margin-top="0"
     fit-margin-left="0"
     fit-margin-right="0"
     fit-margin-bottom="0" />
  <metadata
     id="metadata5">
    <rdf:RDF>
      <cc:Work
         rdf:about="">
        <dc:format>image/svg+xml</dc:format>
        <dc:type
           rdf:resource="http://purl.org/dc/dcmitype/StillImage" />
        <dc:title></dc:title>
      </cc:Work>
    </rdf:RDF>
  </metadata>
  <g
     inkscape:label="Layer 1"
     inkscape:groupmode="layer"
     id="layer1"
     transform="translate(-103.85221,-87.20182)">
    <g
       id="g4537">
      <path
         style="fill:#c0c0c0;stroke-width:0.26458335"
         d="m 126.12947,93.81604 c -14.85151,5.468298 -7.42575,2.734149 0,0 z m -3.41978,1.587814 c -12.57165,4.409755 -6.28583,2.204878 0,0 z m 5.2196,0.280198 c 0,-0.427975 0.0942,-0.836342 0.20929,-0.907482 0.26697,0.526034 -0.1985,2.547084 -0.20929,0.907482 z m -7.57113,-1.18382 c -11.00397,5.01217 -5.50198,2.506085 0,0 z m 8.089,-0.226609 c -16.39663,5.163242 -8.19832,2.581621 0,0 z m -6.73557,-0.457274 c -11.90625,5.468092 -5.95313,2.734046 0,0 z M 105.54066,92.87657 c -1.12563,6.094611 -0.56282,3.047306 0,0 z m 11.93644,-0.120419 c -9.08326,6.17489 -4.54163,3.087445 0,0 z m -5.68739,-2.114801 c -5.29167,7.584758 -2.64583,3.792379 0,0 z"
         id="path4541"
         inkscape:connector-curvature="0"
         sodipodi:nodetypes="ccccccccccccccccccc" />
      <path
         style="fill:#b8b8b8;stroke-width:0.26458335"
         d="m 108.15338,99.341665 c -2.12158,-0.612707 -3.56596,-3.342687 -2.95972,-5.594076 0.5906,-2.193347 3.2578,-3.931181 5.36142,-3.49328 3.26308,0.67926 4.9586,3.749502 3.64744,6.604803 -0.5956,1.29702 -1.27528,1.924576 -2.59373,2.394793 -1.16099,0.41406 -2.23142,0.441247 -3.45541,0.08776 z m 27.30033,-1.582742 c -0.12839,-0.207737 -0.0865,-0.251325 0.11921,-0.124164 0.40704,0.251566 1.08762,-0.308792 1.08762,-0.895495 0,-0.24856 -0.28146,-1.007888 -0.62547,-1.687394 -0.34401,-0.679507 -0.51837,-1.235467 -0.38747,-1.235467 0.1309,0 0.48313,0.565547 0.78273,1.256771 l 0.54473,1.256771 0.43805,-1.168771 c 0.24093,-0.642824 0.57186,-1.213284 0.73539,-1.267689 0.26209,-0.08719 -0.31372,1.394931 -1.30561,3.36063 -0.37098,0.735196 -1.08617,0.995087 -1.38918,0.504808 z m -17.71087,-3.14877 c 0,-2.086959 0.009,-2.116373 0.66145,-2.095778 0.36381,0.01149 0.51263,0.08094 0.33073,0.15434 -0.21929,0.08849 -0.33073,0.742613 -0.33073,1.941438 0,1.198826 0.11144,1.85295 0.33073,1.941439 0.1819,0.0734 0.0331,0.142852 -0.33073,0.15434 -0.65217,0.0206 -0.66145,-0.0088 -0.66145,-2.095779 z m 1.94271,0.661098 c -0.0645,-1.036535 0.005,-1.455465 0.2401,-1.455208 0.1819,1.98e-4 0.33073,0.134002 0.33073,0.297341 0,0.21073 0.11061,0.205178 0.38087,-0.01912 0.20948,-0.173854 0.7155,-0.277729 1.12448,-0.230834 0.67673,0.07759 0.75119,0.191957 0.82798,1.271542 0.0464,0.652453 0.22501,1.275708 0.39688,1.385011 0.21008,0.1336 0.1655,0.20006 -0.13603,0.202784 -0.34809,0.0031 -0.46658,-0.277373 -0.52917,-1.252719 -0.0694,-1.082093 -0.1654,-1.268787 -0.69051,-1.343227 -0.90108,-0.127736 -1.3745,0.414427 -1.3745,1.574062 0,1.571309 -0.46818,1.218936 -0.57083,-0.429632 z m 4.2128,-0.06579 c -0.12136,-1.661006 0.28907,-2.652735 1.05321,-2.711979 0.96954,-0.07517 1.69106,0.384718 -0.15101,0.420712 -0.47649,0.333745 -0.53665,0.497826 -0.29106,0.79375 1.23987,0.135957 1.47072,0.523377 0.50493,0.473264 -0.22256,-0.01155 -0.81202,0.308607 -0.74866,1.222855 0.0504,0.727695 0.0134,1.323007 -0.0823,1.322917 -0.0957,-9.1e-5 -0.22398,-0.684774 -0.28512,-1.521519 z m 2.1372,0.06579 c -0.0499,-0.800563 -0.001,-1.455407 0.10781,-1.455208 0.10914,1.98e-4 0.19843,0.585751 0.19843,1.301229 0,0.793131 0.12909,1.352955 0.33073,1.43432 0.20725,0.08363 0.167,0.14125 -0.1078,0.15434 -0.34743,0.01655 -0.45736,-0.281493 -0.52917,-1.434681 z m 1.5875,0 c -0.0842,-1.352955 0.10069,-1.895169 0.38341,-1.124118 0.097,0.264583 0.19139,0.264583 0.47184,0 0.49826,-0.470052 1.74384,-0.41358 1.93623,0.08778 0.0883,0.230183 0.1606,0.815574 0.1606,1.300868 0,0.485295 0.14882,0.942407 0.33073,1.015806 0.1819,0.0734 0.0628,0.142852 -0.26459,0.15434 -0.54077,0.01897 -0.59531,-0.100315 -0.59531,-1.302028 0,-1.211407 -0.0523,-1.322917 -0.62045,-1.322917 -0.90336,0 -1.58397,0.869653 -1.44131,1.841646 0.0649,0.442303 0.0306,0.804187 -0.0762,0.804187 -0.10685,0 -0.23506,-0.655006 -0.28491,-1.455569 z m 4.27499,0.154701 c 0,-0.793131 -0.12908,-1.352955 -0.33073,-1.43432 -0.19757,-0.07972 -0.14431,-0.141862 0.1323,-0.15434 0.38102,-0.01719 0.46302,0.209489 0.46302,1.27998 0,0.793131 0.12908,1.352955 0.33073,1.43432 0.19757,0.07972 0.14431,0.141862 -0.1323,0.15434 -0.38102,0.01719 -0.46302,-0.209489 -0.46302,-1.27998 z m 2.18282,1.12564 c -0.19317,-0.07795 -0.33073,-0.610321 -0.33073,-1.27998 0,-0.63059 -0.0957,-1.186215 -0.21273,-1.234722 -0.117,-0.04851 -0.0592,-0.385851 0.12839,-0.749653 0.18762,-0.363802 0.34287,-0.495991 0.34502,-0.293752 0.002,0.202239 0.21226,0.531385 0.46692,0.731436 0.35481,0.278726 0.37027,0.347376 0.0661,0.293752 -0.62084,-0.109467 -0.70759,1.923323 -0.10101,2.366865 0.46224,0.338001 0.27592,0.423466 -0.36201,0.166054 z"
         id="path4539"
         inkscape:connector-curvature="0"
         sodipodi:nodetypes="ccscscccsssccccscsccsccsccscccccccsccsccsccccccscscccccsccsscsccsccsccscscccccccc" />
    </g>
  </g>
</svg>
