<svg xmlns="http://www.w3.org/2000/svg" width="49" height="41" viewBox="0 0 49 41"><g><g><path fill="#ff817e" d="M30.763 17.051c-.789 12.99-8.706 20.65-8.706 20.65-6.381 1.213-12.724-2.499-12.724-2.499 5.654 4.894 12.078 3.855 12.078 3.855C4.473 46.642-.001 28.993-.001 28.993c4.487 2.144 9.668.224 9.668.224 4.657-1.05 8.83 1.97 8.83 1.97-5.172-10.753 4.02-18.353 4.02-18.353C29.86 7.248 31.14 0 31.14 0c19.376 24.47-6.678 37.985-6.678 37.985 8.204-11.716 6.3-20.933 6.3-20.933zm17.98 1.315c-.004.018-.005.036-.012.054-8.243 21.373-27.66 22.575-27.66 22.575 18.402-3.452 24.284-18.079 25.148-20.53a3.413 3.413 0 0 1-2.396-.395c-1.655-.962-2.225-3.095-1.273-4.766a3.439 3.439 0 0 1 4.721-1.285c1.52.883 2.12 2.754 1.471 4.347z"/></g></g></svg>